<svg width="1200" height="760" viewBox="0 0 1200 760" fill="none" xmlns="http://www.w3.org/2000/svg">
  <defs>
    <linearGradient id="bg" x1="100" y1="80" x2="1100" y2="700" gradientUnits="userSpaceOnUse">
      <stop stop-color="#0C2742"/>
      <stop offset="1" stop-color="#173A35"/>
    </linearGradient>
    <linearGradient id="accent" x1="0" y1="0" x2="1" y2="1">
      <stop stop-color="#79E2FF"/>
      <stop offset="1" stop-color="#48EDB8"/>
    </linearGradient>
  </defs>

  <rect width="1200" height="760" rx="36" fill="#081622"/>
  <rect x="70" y="70" width="1060" height="620" rx="28" fill="url(#bg)" stroke="#335E75"/>

  <rect x="130" y="130" width="940" height="90" rx="20" fill="#102B42"/>
  <rect x="170" y="164" width="200" height="18" rx="9" fill="#8CCFE8" fill-opacity="0.62"/>
  <rect x="390" y="164" width="140" height="18" rx="9" fill="#8CCFE8" fill-opacity="0.48"/>
  <rect x="548" y="164" width="140" height="18" rx="9" fill="#8CCFE8" fill-opacity="0.48"/>

  <rect x="130" y="256" width="280" height="178" rx="22" fill="#103A53" stroke="#3B7288"/>
  <rect x="130" y="456" width="280" height="178" rx="22" fill="#103A53" stroke="#3B7288"/>
  <rect x="460" y="256" width="280" height="178" rx="22" fill="#12485A" stroke="#3E8486"/>
  <rect x="460" y="456" width="280" height="178" rx="22" fill="#12485A" stroke="#3E8486"/>
  <rect x="790" y="256" width="280" height="378" rx="22" fill="#153B47" stroke="#3F8274"/>

  <rect x="160" y="296" width="170" height="18" rx="9" fill="#B4E7F8" fill-opacity="0.66"/>
  <rect x="160" y="330" width="120" height="14" rx="7" fill="#B4E7F8" fill-opacity="0.45"/>
  <path d="M160 390L210 356L250 372L320 322" stroke="url(#accent)" stroke-width="8" stroke-linecap="round"/>

  <rect x="160" y="496" width="170" height="18" rx="9" fill="#B4E7F8" fill-opacity="0.66"/>
  <rect x="160" y="530" width="120" height="14" rx="7" fill="#B4E7F8" fill-opacity="0.45"/>
  <path d="M160 590L208 560L252 574L320 520" stroke="url(#accent)" stroke-width="8" stroke-linecap="round"/>

  <rect x="490" y="296" width="170" height="18" rx="9" fill="#B7F0DF" fill-opacity="0.62"/>
  <rect x="490" y="330" width="120" height="14" rx="7" fill="#B7F0DF" fill-opacity="0.45"/>
  <circle cx="560" cy="382" r="42" fill="#43D6BC" fill-opacity="0.4"/>

  <rect x="490" y="496" width="170" height="18" rx="9" fill="#B7F0DF" fill-opacity="0.62"/>
  <rect x="490" y="530" width="120" height="14" rx="7" fill="#B7F0DF" fill-opacity="0.45"/>
  <circle cx="560" cy="582" r="42" fill="#43D6BC" fill-opacity="0.4"/>

  <rect x="824" y="306" width="210" height="24" rx="12" fill="#BAF5E0" fill-opacity="0.6"/>
  <rect x="824" y="344" width="160" height="14" rx="7" fill="#BAF5E0" fill-opacity="0.42"/>
  <rect x="824" y="404" width="210" height="24" rx="12" fill="#BAF5E0" fill-opacity="0.6"/>
  <rect x="824" y="442" width="160" height="14" rx="7" fill="#BAF5E0" fill-opacity="0.42"/>
  <rect x="824" y="502" width="210" height="24" rx="12" fill="#BAF5E0" fill-opacity="0.6"/>
  <rect x="824" y="540" width="160" height="14" rx="7" fill="#BAF5E0" fill-opacity="0.42"/>
</svg>
