<?xml version="1.0" standalone="no"?>
<!DOCTYPE svg PUBLIC "-//W3C//DTD SVG 20010904//EN"
 "http://www.w3.org/TR/2001/REC-SVG-20010904/DTD/svg10.dtd">
<svg version="1.0" xmlns="http://www.w3.org/2000/svg"
 width="214.000000pt" height="214.000000pt" viewBox="126 102 214 214"
 preserveAspectRatio="xMidYMid meet">
<defs>
<linearGradient id="logoPalette" x1="0" y1="0" x2="1" y2="1">
<stop offset="0%" stop-color="#79E2FF"/>
<stop offset="100%" stop-color="#48EDB8"/>
</linearGradient>
</defs>
<g transform="translate(0.000000,369.000000) scale(0.100000,-0.100000)"
fill="url(#logoPalette)" stroke="none">
<path d="M1535 3680 c3 -5 8 -10 11 -10 2 0 4 5 4 10 0 6 -5 10 -11 10 -5 0
-7 -4 -4 -10z"/>
<path d="M2348 3653 c6 -65 10 -70 11 -15 0 28 -3 52 -7 52 -4 0 -6 -17 -4
-37z"/>
<path d="M2386 3593 c-4 -31 -3 -60 1 -64 4 -4 9 21 11 57 2 35 1 64 -1 64 -2
0 -7 -26 -11 -57z"/>
<path d="M3251 3617 c-13 -21 -12 -21 5 -5 10 10 16 20 13 22 -3 3 -11 -5 -18
-17z"/>
<path d="M1567 3623 c-3 -5 1 -19 9 -33 l14 -25 -6 30 c-8 35 -10 39 -17 28z"/>
<path d="M1527 3599 c4 -13 8 -18 11 -10 2 7 -1 18 -6 23 -8 8 -9 4 -5 -13z"/>
<path d="M2351 3564 c0 -11 3 -14 6 -6 3 7 2 16 -1 19 -3 4 -6 -2 -5 -13z"/>
<path d="M1551 3554 c0 -11 3 -14 6 -6 3 7 2 16 -1 19 -3 4 -6 -2 -5 -13z"/>
<path d="M1600 3543 c1 -14 30 -48 30 -34 0 7 -7 19 -15 27 -8 9 -15 12 -15 7z"/>
<path d="M3196 3533 c-6 -14 -5 -15 5 -6 7 7 10 15 7 18 -3 3 -9 -2 -12 -12z"/>
<path d="M2335 3519 c-4 -6 -3 -15 3 -21 6 -6 11 -4 15 6 7 18 -9 31 -18 15z"/>
<path d="M3141 3494 c0 -11 3 -14 6 -6 3 7 2 16 -1 19 -3 4 -6 -2 -5 -13z"/>
<path d="M1596 3477 c3 -10 9 -15 12 -12 3 3 0 11 -7 18 -10 9 -11 8 -5 -6z"/>
<path d="M1635 3480 c3 -5 8 -10 11 -10 2 0 4 5 4 10 0 6 -5 10 -11 10 -5 0
-7 -4 -4 -10z"/>
<path d="M3187 3469 c4 -13 8 -18 11 -10 2 7 -1 18 -6 23 -8 8 -9 4 -5 -13z"/>
<path d="M3105 3410 c-3 -5 -1 -10 4 -10 6 0 11 5 11 10 0 6 -2 10 -4 10 -3 0
-8 -4 -11 -10z"/>
<path d="M3145 3410 c-3 -5 -1 -10 4 -10 6 0 11 5 11 10 0 6 -2 10 -4 10 -3 0
-8 -4 -11 -10z"/>
<path d="M2035 3390 c-4 -6 3 -10 14 -10 25 0 27 6 6 13 -8 4 -17 2 -20 -3z"/>
<path d="M2090 3390 c8 -6 24 -15 35 -21 16 -8 15 -6 -4 10 -13 12 -28 21 -35
21 -6 0 -4 -5 4 -10z"/>
<path d="M1990 3372 c-9 -9 -22 -29 -29 -44 -8 -16 -21 -29 -30 -29 -25 -2
-34 -4 -64 -17 -16 -7 -33 -12 -39 -12 -6 0 -17 -8 -24 -17 -8 -11 -13 -13
-14 -5 0 6 -4 12 -10 12 -5 0 -7 -6 -4 -14 3 -7 -3 -16 -13 -20 -10 -3 -31
-14 -48 -25 -16 -10 -34 -16 -39 -13 -5 3 -6 0 -2 -6 4 -7 3 -12 -2 -12 -5 0
-14 -12 -20 -26 -7 -14 -17 -22 -22 -19 -6 3 -10 -1 -10 -10 0 -9 -9 -19 -20
-22 -11 -3 -20 -11 -20 -18 0 -7 -7 -15 -15 -19 -8 -3 -15 -11 -15 -19 0 -7
-11 -24 -25 -37 -13 -12 -22 -27 -19 -32 3 -5 0 -7 -8 -6 -7 2 -14 -8 -16 -22
-2 -14 -7 -27 -12 -30 -12 -8 -40 -67 -40 -85 0 -8 -5 -15 -11 -15 -6 0 -9 -7
-5 -15 3 -8 2 -15 -3 -15 -5 0 -13 -21 -19 -47 -5 -27 -17 -73 -25 -104 -9
-32 -14 -77 -11 -105 2 -27 4 -88 4 -135 1 -84 0 -86 -35 -123 -19 -20 -39
-34 -45 -31 -5 3 -10 2 -10 -3 0 -18 -63 -82 -81 -82 -10 0 -16 -7 -15 -17 0
-12 -6 -17 -17 -17 -11 1 -16 -4 -15 -15 2 -9 -3 -15 -10 -13 -8 1 -11 -2 -7
-8 3 -5 -1 -10 -9 -10 -9 0 -16 -7 -16 -15 0 -8 -9 -20 -20 -27 -11 -7 -20
-18 -20 -25 0 -6 -13 -22 -28 -35 -15 -13 -31 -32 -36 -43 -6 -16 -9 -17 -16
-5 -9 13 -10 13 -11 0 -1 -8 -1 -20 0 -27 1 -6 -11 -21 -25 -32 -15 -12 -21
-21 -15 -21 9 0 8 -8 -3 -27 -38 -71 -56 -124 -67 -201 -7 -45 -15 -78 -18
-73 -3 5 -5 -34 -4 -87 1 -54 2 -97 4 -97 1 0 3 -11 5 -25 2 -14 6 -45 9 -70
3 -25 7 -53 8 -62 1 -10 5 -18 9 -18 4 0 8 -12 8 -26 0 -14 4 -23 8 -20 5 3
13 -15 20 -38 6 -24 24 -59 39 -77 19 -22 29 -46 30 -73 3 -65 7 -86 14 -86 4
0 9 -10 12 -22 4 -12 9 -19 12 -16 4 4 -2 26 -12 50 -15 33 -17 50 -10 71 8
24 2 42 -37 118 -25 50 -46 99 -46 110 0 10 -4 19 -9 19 -8 0 -24 89 -36 197
-16 147 42 363 133 502 33 51 244 271 341 355 l43 38 2 152 c1 83 5 165 9 181
5 17 14 58 22 92 17 74 79 209 128 276 90 126 240 245 363 288 35 13 64 28 64
34 0 5 11 27 25 48 26 38 23 50 -5 19z"/>
<path d="M2144 3338 c-3 -4 -4 -8 -2 -9 2 0 32 -1 68 -3 85 -4 207 -24 245
-41 17 -7 47 -19 68 -25 20 -6 37 -16 37 -21 0 -5 6 -9 13 -9 17 0 120 -69
168 -112 20 -18 58 -60 83 -93 26 -33 51 -65 56 -72 11 -14 60 -118 60 -128 0
-4 7 -21 15 -38 27 -60 64 -238 71 -342 l7 -104 40 -27 c120 -79 312 -259 383
-360 88 -124 151 -307 170 -492 2 -21 13 -41 29 -54 14 -10 25 -29 25 -40 0
-12 3 -19 6 -15 12 12 -8 65 -26 70 -14 3 -18 14 -18 38 1 19 -2 42 -6 51 -5
10 -6 23 -3 30 3 7 6 3 6 -10 1 -14 5 -20 12 -17 7 5 5 15 -6 32 -10 14 -17
47 -17 76 -1 29 -7 61 -15 73 -7 11 -10 24 -6 28 4 4 1 11 -6 16 -8 4 -14 23
-14 42 1 18 -1 27 -4 20 -3 -6 -9 -9 -14 -6 -6 3 -5 12 3 22 11 13 11 15 -4
10 -10 -4 -19 -1 -22 8 -3 9 -1 12 4 9 6 -4 1 10 -10 30 -11 19 -20 42 -20 50
0 8 -6 15 -12 15 -16 1 -68 68 -68 88 0 9 -3 12 -7 9 -9 -10 -33 13 -33 32 0
9 -13 22 -30 29 -16 8 -30 18 -30 22 0 13 -42 56 -63 63 -10 4 -25 20 -35 37
-9 16 -24 29 -32 27 -9 -1 -15 6 -15 17 0 11 -6 21 -13 24 -6 2 -12 -1 -12 -8
0 -6 -5 -8 -10 -5 -6 4 -8 10 -5 15 3 4 -7 11 -21 14 -18 5 -24 12 -20 22 3 8
2 13 -2 10 -5 -3 -18 1 -29 9 -23 16 -37 55 -20 55 8 0 8 3 0 8 -7 5 -12 26
-12 48 1 42 -4 79 -15 105 -4 9 -5 35 -3 58 3 32 1 41 -9 37 -8 -3 -14 1 -14
8 0 7 -3 28 -7 46 -5 26 -3 31 7 25 9 -5 11 -4 6 4 -4 6 -11 9 -15 7 -9 -6
-32 64 -25 76 3 4 0 8 -5 8 -6 0 -11 9 -11 21 0 13 -4 18 -12 13 -7 -5 -9 -2
-6 7 3 9 -3 26 -13 40 -10 13 -19 32 -19 42 0 10 -4 16 -8 13 -5 -3 -15 10
-22 29 -8 19 -17 35 -20 35 -4 0 -25 23 -48 51 -23 29 -42 49 -42 46 0 -3 -11
5 -25 19 -14 14 -25 29 -25 35 0 6 -4 7 -10 4 -5 -3 -10 -1 -10 4 0 6 -6 11
-14 11 -8 0 -16 6 -19 14 -3 7 -19 16 -35 19 -16 3 -37 13 -46 22 -9 9 -21 13
-27 9 -7 -4 -9 -3 -5 4 7 12 -6 22 -37 27 -47 8 -113 28 -127 41 -17 14 -237
17 -246 2z"/>
<path d="M3051 3283 c-10 -26 -10 -27 4 -9 8 11 15 23 15 28 0 15 -7 8 -19
-19z"/>
<path d="M3096 3295 c-3 -9 -6 -24 -5 -33 0 -9 5 -4 10 12 9 32 6 48 -5 21z"/>
<path d="M2160 3259 c0 -12 -51 -65 -70 -72 -12 -4 -12 -6 2 -6 10 -1 32 14
50 31 18 18 40 32 48 31 81 -8 189 -27 203 -35 11 -5 21 -7 24 -4 3 3 12 -1
19 -9 7 -7 31 -16 53 -20 22 -3 42 -13 45 -22 4 -8 13 -13 21 -9 9 3 15 -1 15
-10 0 -10 6 -14 14 -11 8 3 17 0 20 -8 2 -7 17 -20 33 -27 15 -8 27 -20 25
-27 -1 -7 2 -9 8 -6 11 7 50 -30 50 -48 0 -6 3 -7 7 -4 7 8 33 -11 33 -25 0
-5 -5 -6 -12 -2 -7 4 -8 3 -4 -5 4 -6 12 -9 17 -6 5 4 9 -1 9 -9 0 -9 3 -16 8
-16 4 0 12 -8 17 -19 47 -87 65 -127 65 -143 0 -11 4 -17 9 -14 8 5 14 -14 28
-91 3 -18 10 -33 15 -33 7 0 8 -14 5 -35 -3 -21 -2 -33 4 -30 5 4 9 -4 9 -17
0 -13 3 -34 7 -47 5 -19 3 -22 -8 -16 -11 6 -12 5 -1 -6 6 -7 12 -24 12 -37 0
-16 -4 -21 -12 -15 -13 8 -18 9 -51 11 -11 1 -15 7 -11 14 5 8 0 9 -14 6 -12
-4 -20 -2 -17 3 3 4 -7 11 -22 15 -45 10 -102 37 -97 45 2 4 -2 13 -9 20 -7 7
-11 24 -9 37 3 16 1 23 -5 19 -12 -8 -37 78 -28 93 8 12 -19 52 -28 43 -4 -3
-7 0 -7 9 0 8 -9 25 -20 38 -11 12 -17 27 -14 31 3 5 -3 13 -13 17 -10 4 -18
14 -18 22 0 8 -12 21 -27 28 -16 7 -28 17 -28 22 0 5 -10 14 -21 21 -17 9 -20
8 -14 -2 5 -8 4 -10 -3 -5 -7 4 -12 14 -12 22 0 11 -6 13 -19 9 -11 -3 -26 1
-35 10 -9 9 -16 14 -16 10 0 -3 -10 0 -22 6 -13 7 -32 14 -43 15 -11 2 -40 8
-65 14 -48 12 -146 5 -156 -11 -3 -6 -12 -8 -19 -5 -15 5 -85 -14 -85 -24 0
-4 -13 -6 -30 -5 -25 2 -28 0 -17 -13 10 -13 8 -14 -12 -7 -17 5 -21 4 -16 -5
4 -7 -1 -13 -14 -17 -12 -3 -21 -8 -21 -12 0 -3 -9 -17 -20 -31 -12 -15 -18
-18 -14 -7 11 32 -5 17 -32 -28 -14 -25 -30 -43 -34 -40 -4 3 -6 -5 -3 -17 4
-18 2 -20 -5 -9 -8 11 -12 6 -17 -22 -4 -20 -11 -37 -16 -37 -5 0 -8 -3 -7 -7
2 -10 -21 -93 -32 -114 -5 -9 -6 -27 -3 -39 4 -14 2 -21 -4 -17 -6 4 -8 -12
-5 -45 4 -40 2 -49 -8 -43 -10 6 -11 2 -6 -16 19 -64 24 -95 19 -121 -3 -15
-2 -35 2 -45 5 -10 7 -26 6 -37 -2 -10 5 -39 14 -63 14 -35 15 -47 5 -53 -7
-5 -8 -9 -2 -11 6 -2 20 -44 32 -94 12 -49 28 -101 36 -116 7 -14 16 -49 20
-79 5 -41 9 -49 15 -35 8 20 8 20 9 0 2 -11 2 -26 1 -34 -2 -7 2 -10 7 -7 5 3
24 -26 41 -64 18 -39 36 -70 40 -70 4 0 16 -16 27 -37 10 -20 29 -47 42 -60
13 -13 20 -28 16 -35 -5 -7 -3 -8 5 -4 8 5 14 0 18 -13 3 -12 10 -21 15 -21
12 0 38 -26 32 -32 -2 -3 1 -10 9 -16 10 -9 13 -6 12 12 0 12 -20 45 -45 73
-86 95 -191 279 -225 393 -4 14 -13 39 -21 55 -13 29 -31 100 -59 235 -7 36
-19 115 -25 175 -22 196 23 390 113 485 108 114 167 143 329 165 62 8 184 -19
250 -55 113 -62 205 -184 234 -309 27 -117 30 -126 41 -126 6 0 15 -3 19 -7 4
-5 14 -8 22 -8 16 0 87 -31 185 -80 47 -23 57 -25 53 -12 -2 9 -10 55 -16 102
-43 307 -127 478 -306 620 -19 15 -98 64 -140 87 -68 37 -354 87 -354 62z"/>
<path d="M3022 3238 c-15 -15 -16 -38 -1 -38 5 0 7 5 3 11 -3 6 0 15 7 20 7 4
11 10 8 13 -3 3 -11 0 -17 -6z"/>
<path d="M3071 3228 c-1 -10 -6 -18 -12 -18 -5 0 -7 -5 -3 -11 9 -15 28 16 20
34 -2 7 -5 4 -5 -5z"/>
<path d="M1905 3203 c-159 -67 -305 -208 -379 -368 -59 -129 -69 -173 -73
-350 -5 -167 2 -251 31 -390 14 -67 22 -95 84 -295 63 -203 136 -337 264 -482
67 -77 72 -104 20 -101 -21 1 -31 -3 -29 -10 3 -7 10 -11 16 -9 6 1 26 3 45 5
19 1 33 4 30 6 -2 2 1 12 7 22 7 15 6 17 -6 13 -14 -6 -21 16 -16 54 1 6 -3
12 -9 12 -6 0 -8 -5 -5 -10 3 -5 3 -10 -2 -10 -4 0 -14 14 -21 30 -8 17 -18
27 -24 24 -5 -3 -8 2 -6 12 2 10 -3 19 -10 19 -17 0 -43 35 -36 47 3 5 2 7 -3
6 -4 -2 -9 1 -10 6 -1 5 -5 12 -10 15 -14 10 -48 65 -48 78 0 7 -9 18 -19 26
-10 7 -18 26 -18 40 0 15 -4 30 -9 33 -5 3 -9 15 -9 27 0 18 -2 19 -11 7 -8
-11 -9 -6 -5 20 3 19 3 29 0 22 -9 -19 -29 14 -38 61 -4 20 -11 37 -17 37 -6
0 -8 4 -5 8 3 5 7 20 10 35 3 19 1 24 -9 21 -16 -6 -38 60 -39 114 0 24 -4 31
-14 27 -12 -4 -14 4 -10 46 3 28 2 45 -2 39 -14 -23 -21 8 -18 80 1 51 -2 74
-11 80 -10 5 -12 18 -8 39 4 19 2 40 -6 51 -9 16 -9 24 1 40 14 24 16 33 2 25
-5 -3 -9 30 -8 86 1 57 5 84 10 73 5 -12 6 -8 2 13 -3 17 -1 41 5 52 6 11 12
36 13 55 2 20 6 36 11 36 4 0 7 11 7 24 0 13 6 29 14 35 7 6 16 25 20 42 3 17
10 28 16 24 6 -3 7 1 4 10 -4 10 1 22 15 32 12 8 20 21 17 29 -3 7 1 17 8 21
7 5 16 17 20 28 5 13 10 15 13 7 3 -6 9 -10 13 -7 5 3 7 12 4 20 -3 8 1 22 10
30 9 9 16 13 16 9 0 -4 9 2 20 14 11 12 20 26 20 32 0 5 7 10 15 10 8 0 15 5
15 10 0 14 27 12 34 -2 3 -7 3 0 -1 15 -3 15 -1 27 3 26 25 -4 45 2 38 13 -4
6 -3 8 4 5 13 -9 44 2 37 13 -3 4 15 13 40 19 25 6 45 16 45 21 0 17 28 11 39
-7 14 -24 14 -7 1 18 -13 24 -20 23 -95 -8z m-315 -1357 c0 -3 -4 -8 -10 -11
-5 -3 -10 -1 -10 4 0 6 5 11 10 11 6 0 10 -2 10 -4z"/>
<path d="M2038 3183 c7 -3 16 -2 19 1 4 3 -2 6 -13 5 -11 0 -14 -3 -6 -6z"/>
<path d="M2470 3140 c-9 -6 -10 -10 -3 -10 6 0 15 5 18 10 8 12 4 12 -15 0z"/>
<path d="M2967 3123 c3 -7 6 -13 8 -13 2 0 5 6 8 13 3 8 -1 14 -8 14 -7 0 -11
-6 -8 -14z"/>
<path d="M350 3125 c0 -2 10 -10 23 -16 20 -11 21 -11 8 4 -13 16 -31 23 -31
12z"/>
<path d="M400 3091 c0 -9 30 -24 36 -18 2 1 -6 8 -16 15 -11 7 -20 8 -20 3z"/>
<path d="M340 3071 c0 -11 59 -36 67 -27 3 3 -1 6 -9 6 -9 0 -21 7 -28 15 -14
17 -30 20 -30 6z"/>
<path d="M2844 3069 c-3 -6 -2 -15 3 -20 5 -5 9 -1 10 11 2 22 -2 25 -13 9z"/>
<path d="M450 3060 c0 -5 5 -10 10 -10 6 0 10 5 10 10 0 6 -4 10 -10 10 -5 0
-10 -4 -10 -10z"/>
<path d="M4160 3049 c0 -5 5 -7 10 -4 6 3 10 8 10 11 0 2 -4 4 -10 4 -5 0 -10
-5 -10 -11z"/>
<path d="M4103 3019 c-45 -29 -41 -34 7 -9 38 19 50 30 33 30 -5 0 -23 -10
-40 -21z"/>
<path d="M430 3020 c0 -5 5 -10 11 -10 5 0 7 5 4 10 -3 6 -8 10 -11 10 -2 0
-4 -4 -4 -10z"/>
<path d="M520 3020 c0 -5 5 -10 11 -10 5 0 7 5 4 10 -3 6 -8 10 -11 10 -2 0
-4 -4 -4 -10z"/>
<path d="M2378 3013 c7 -3 16 -2 19 1 4 3 -2 6 -13 5 -11 0 -14 -3 -6 -6z"/>
<path d="M4180 3009 c0 -5 5 -7 10 -4 6 3 10 8 10 11 0 2 -4 4 -10 4 -5 0 -10
-5 -10 -11z"/>
<path d="M4037 2980 c-9 -11 -13 -20 -7 -20 5 0 14 9 20 20 6 11 9 20 8 20 -2
0 -11 -9 -21 -20z"/>
<path d="M4126 2985 c-16 -12 -17 -15 -4 -15 8 0 21 7 28 15 16 19 1 19 -24 0z"/>
<path d="M487 2983 c-3 -5 8 -8 25 -9 20 -1 25 2 16 7 -16 11 -35 11 -41 2z"/>
<path d="M590 2980 c0 -5 5 -10 10 -10 6 0 10 5 10 10 0 6 -4 10 -10 10 -5 0
-10 -4 -10 -10z"/>
<path d="M630 2970 c-9 -6 -10 -10 -3 -10 6 0 15 5 18 10 8 12 4 12 -15 0z"/>
<path d="M550 2960 c0 -5 5 -10 11 -10 5 0 7 5 4 10 -3 6 -8 10 -11 10 -2 0
-4 -4 -4 -10z"/>
<path d="M657 2949 c7 -7 15 -10 18 -7 3 3 -2 9 -12 12 -14 6 -15 5 -6 -5z"/>
<path d="M3985 2950 c-16 -7 -17 -9 -3 -9 9 -1 20 4 23 9 7 11 7 11 -20 0z"/>
<path d="M4070 2950 c0 -5 5 -10 11 -10 5 0 7 5 4 10 -3 6 -8 10 -11 10 -2 0
-4 -4 -4 -10z"/>
<path d="M588 2933 c7 -3 16 -2 19 1 4 3 -2 6 -13 5 -11 0 -14 -3 -6 -6z"/>
<path d="M2089 2907 c-126 -39 -202 -104 -259 -222 -67 -141 -64 -326 10 -615
11 -41 23 -88 26 -105 4 -16 13 -39 20 -50 8 -11 14 -28 14 -38 0 -11 11 -41
25 -69 14 -27 25 -54 25 -59 0 -5 8 -22 19 -37 10 -15 36 -54 57 -86 21 -33
61 -83 87 -110 54 -58 61 -96 17 -106 -17 -4 -21 -8 -12 -14 6 -4 16 -5 21 -2
5 3 12 -1 15 -10 10 -26 7 -36 -8 -31 -10 4 -13 1 -10 -8 4 -9 -3 -16 -19 -20
-15 -4 -24 -13 -23 -23 0 -9 -6 -17 -14 -17 -8 0 -18 -8 -22 -18 -5 -11 -13
-15 -19 -11 -7 4 -10 3 -7 -2 3 -5 -5 -19 -18 -32 -13 -12 -24 -20 -24 -16 0
3 -9 -4 -20 -17 -10 -13 -19 -21 -20 -17 0 5 -16 -8 -37 -27 -20 -19 -40 -32
-45 -29 -4 3 -8 0 -8 -5 0 -6 -9 -11 -20 -11 -11 0 -20 -4 -20 -9 0 -5 -10
-13 -22 -17 -105 -35 -284 -15 -329 37 -10 12 -19 18 -19 13 0 -5 -6 -2 -13 7
-7 9 -22 21 -34 28 -13 6 -23 20 -23 31 0 10 -5 22 -12 26 -7 5 -8 3 -3 -6 5
-9 4 -11 -3 -6 -6 4 -17 25 -23 46 -7 22 -16 37 -20 34 -5 -3 -9 2 -9 11 0 9
5 13 11 9 7 -4 10 -1 7 7 -3 8 -10 13 -16 12 -5 -1 -10 8 -11 20 0 12 -2 40
-4 62 -2 22 -1 54 3 71 4 17 3 39 -3 49 -7 13 -6 16 2 11 7 -5 11 3 12 21 0
25 1 26 9 8 7 -16 9 -12 9 18 1 22 5 36 11 32 6 -4 7 1 3 11 -5 13 -3 15 7 9
8 -5 11 -3 8 6 -2 7 -1 18 4 24 5 5 16 19 24 30 9 11 13 14 9 8 -3 -7 -1 -13
4 -13 6 0 11 8 11 18 0 10 11 25 25 32 14 7 25 19 25 26 0 8 6 11 14 8 14 -5
36 -67 36 -103 0 -12 4 -19 10 -16 16 10 23 -21 10 -47 -11 -22 -11 -23 6 -3
16 19 16 19 12 -12 -3 -25 -2 -30 8 -22 9 8 11 5 7 -12 -4 -15 -3 -20 5 -15 8
5 12 0 12 -14 0 -11 7 -23 15 -26 8 -4 12 -10 9 -15 -9 -15 6 -49 23 -49 10 0
13 -6 9 -16 -4 -10 -2 -13 6 -8 7 5 9 2 6 -8 -4 -8 -2 -21 4 -29 8 -11 8 -9 4
6 -5 18 -4 17 14 -4 11 -13 20 -30 20 -38 0 -8 5 -11 10 -8 6 3 10 0 10 -8 0
-8 7 -18 16 -21 9 -3 12 -11 8 -18 -4 -7 -4 -10 0 -6 13 11 46 -30 40 -49 -5
-15 -4 -16 5 -3 10 13 15 8 12 -12 0 -5 3 -8 8 -8 28 0 16 28 -44 102 -36 46
-69 88 -73 93 -26 34 -102 182 -126 245 -16 41 -33 85 -38 96 -6 12 -13 36
-16 53 -4 18 -10 32 -14 31 -7 0 -105 -103 -138 -146 -45 -56 -90 -190 -90
-265 0 -33 21 -110 48 -174 21 -49 113 -144 167 -170 22 -11 42 -23 45 -27 10
-12 151 -24 215 -17 106 10 210 85 468 338 261 257 322 352 403 629 5 17 42
15 60 -3 9 -8 11 -15 6 -15 -5 0 -15 -27 -21 -61 -17 -84 -59 -172 -149 -309
-63 -95 -354 -394 -482 -495 -41 -32 -77 -62 -80 -66 -8 -10 -104 -57 -152
-74 -25 -8 -78 -15 -125 -15 -67 0 -95 5 -150 27 -38 16 -74 34 -81 40 -7 7
-17 13 -21 13 -15 0 -118 105 -125 128 -4 12 -11 22 -16 22 -5 0 -14 17 -21
38 -6 20 -16 40 -21 43 -16 10 -30 133 -23 208 11 125 61 215 197 355 l67 69
-13 58 c-8 31 -17 63 -22 70 -4 7 -12 53 -18 103 l-12 90 -93 -89 c-263 -253
-322 -339 -371 -540 -26 -104 -24 -235 5 -345 24 -94 93 -230 116 -230 12 0
16 5 13 15 -4 8 -10 15 -14 15 -13 0 -62 112 -56 127 3 8 1 11 -4 8 -6 -3 -10
2 -10 12 0 11 -6 25 -12 32 -11 11 -10 12 0 6 10 -5 9 1 -3 24 -17 34 -23 182
-10 259 5 30 3 42 -5 42 -9 0 -8 7 3 23 8 12 18 46 22 75 6 44 9 51 21 41 12
-10 13 -8 5 15 -7 17 -7 26 -1 26 6 0 10 7 10 16 0 9 5 12 12 8 7 -4 8 -3 4 4
-4 7 -2 20 3 29 6 10 11 14 11 10 0 -5 7 -1 16 8 9 8 13 22 10 31 -3 8 1 17 9
20 8 4 15 12 15 20 0 8 7 14 15 14 8 0 15 7 15 15 0 10 7 15 18 13 12 -2 16 3
14 16 -2 11 1 15 7 11 6 -3 11 1 11 10 0 9 5 13 10 10 5 -3 10 1 10 10 0 8 9
19 21 23 11 5 21 12 22 17 1 6 5 9 9 8 5 -2 8 4 8 13 0 10 6 14 15 11 8 -4 17
-2 20 3 3 4 -1 11 -7 13 -7 3 -5 6 6 6 11 1 17 4 13 7 -9 9 21 36 33 29 6 -4
7 1 3 11 -4 11 -3 15 4 11 6 -4 14 -1 16 5 4 10 6 10 6 0 1 -7 6 -10 11 -7 6
3 10 3 11 -2 8 -105 26 -180 46 -191 10 -6 6 -18 -23 -55 -20 -26 -41 -44 -47
-40 -6 3 -7 1 -3 -5 4 -7 3 -12 -3 -12 -5 0 -18 -13 -28 -30 -9 -16 -23 -30
-30 -30 -8 0 -18 -12 -24 -27 -5 -15 -19 -33 -30 -41 -13 -9 -18 -20 -14 -33
4 -11 2 -19 -4 -19 -6 0 -11 6 -11 13 0 6 -5 4 -11 -6 -6 -9 -8 -26 -4 -36 3
-11 1 -22 -5 -26 -6 -3 -7 -11 -4 -17 4 -6 1 -13 -5 -17 -7 -5 -13 -52 -15
-129 -3 -115 -2 -123 21 -157 14 -20 22 -43 19 -51 -3 -9 -1 -12 4 -9 6 4 13
-7 16 -24 4 -17 10 -31 15 -31 5 0 9 -7 9 -15 0 -8 6 -14 13 -13 6 2 11 -3 9
-9 -1 -7 2 -13 6 -13 14 0 94 -78 85 -82 -4 -3 -3 -4 3 -2 6 1 19 -7 28 -18
10 -11 24 -17 32 -14 9 3 12 1 9 -4 -3 -6 2 -10 13 -10 11 0 31 -9 44 -20 20
-15 45 -20 119 -23 104 -5 222 10 212 26 -4 6 -1 7 6 3 7 -5 18 -1 25 10 11
15 25 19 71 23 6 1 15 11 20 24 6 12 17 21 24 19 7 -1 10 2 5 9 -5 9 -2 10 12
5 10 -4 15 -4 12 0 -11 10 15 32 31 26 10 -4 13 -1 8 11 -4 11 -2 14 9 10 13
-5 19 8 15 30 -1 5 3 6 9 2 5 -3 13 1 16 9 3 9 13 16 22 16 8 0 12 3 9 7 -9 8
13 34 23 28 4 -2 22 14 39 35 18 22 36 38 42 35 5 -4 9 -1 9 5 0 18 29 42 41
34 8 -4 9 -3 5 5 -8 12 18 44 28 34 3 -4 6 1 6 10 0 10 8 17 19 17 11 0 23 4
26 10 4 6 -1 7 -12 3 -14 -5 -13 -1 6 20 13 15 27 25 30 22 4 -2 13 5 20 17 9
15 10 18 0 13 -8 -6 -10 -4 -4 4 4 7 16 11 26 8 11 -3 20 0 21 6 0 7 2 17 3
22 2 6 3 15 4 20 1 6 6 3 12 -5 9 -12 10 -11 6 7 -3 13 0 26 5 30 7 3 8 1 4
-5 -4 -7 -2 -12 3 -12 6 0 11 9 11 20 0 13 5 18 15 14 11 -5 13 -2 9 11 -4 10
2 28 15 45 11 16 21 34 21 39 0 5 6 16 13 23 6 7 18 25 26 40 8 15 18 25 23
22 9 -6 11 7 9 46 -2 20 0 22 8 10 10 -13 11 -13 12 0 1 8 2 22 3 30 2 8 3 23
4 33 1 10 7 15 12 12 6 -3 10 5 10 19 0 13 4 35 9 48 11 30 -4 68 -30 75 -16
5 -18 8 -7 15 9 7 8 8 -5 4 -10 -3 -28 -6 -38 -6 -11 0 -17 -5 -14 -10 3 -6
-4 -14 -17 -19 -13 -6 -16 -10 -9 -10 12 -1 12 -4 3 -13 -7 -7 -12 -27 -12
-46 0 -18 -4 -31 -8 -28 -4 2 -9 -3 -10 -12 -4 -36 -8 -51 -20 -64 -6 -8 -13
-25 -16 -39 -2 -13 -9 -23 -15 -22 -5 2 -8 -4 -5 -12 4 -8 1 -15 -5 -15 -6 0
-11 -7 -11 -15 0 -8 -4 -15 -10 -15 -5 0 -10 -9 -10 -20 0 -11 -4 -20 -9 -20
-5 0 -12 -8 -16 -19 -3 -10 -30 -45 -61 -77 -30 -33 -55 -61 -55 -64 -1 -3 -5
-4 -10 -3 -5 2 -9 -2 -9 -7 0 -15 -37 -49 -46 -42 -4 4 -4 2 -1 -4 7 -13 -25
-42 -41 -36 -7 2 -12 14 -12 27 0 30 -10 56 -19 50 -4 -2 -14 6 -22 17 -8 12
-22 28 -31 37 -10 8 -18 19 -18 24 0 13 -27 37 -34 30 -3 -4 -6 -1 -6 6 0 7
-7 19 -15 27 -8 9 -15 24 -15 35 0 11 -4 17 -10 14 -10 -6 -47 72 -42 88 1 5
-3 5 -9 1 -8 -4 -9 0 -4 16 5 15 4 20 -4 16 -7 -5 -11 2 -11 19 0 14 -4 24
-10 20 -10 -6 -35 70 -31 94 1 8 -3 17 -9 21 -13 8 -41 120 -30 120 11 0 0 41
-15 60 -23 27 -32 99 -36 286 -3 95 0 126 11 140 10 12 11 15 2 10 -10 -6 -11
0 -7 26 7 36 45 121 58 126 4 2 5 8 1 13 -3 5 0 9 6 9 7 0 31 19 54 43 50 50
91 75 137 81 19 3 49 9 68 15 43 13 112 7 176 -15 28 -9 56 -18 63 -20 7 -2
17 -16 23 -31 8 -21 12 -24 19 -13 7 12 10 11 16 -5 9 -23 54 -72 54 -59 1 9
27 -36 54 -92 8 -17 14 -44 13 -60 -3 -28 -4 -29 -52 -25 -28 1 -52 6 -55 10
-10 15 -68 21 -74 8 -3 -9 -7 -9 -13 -1 -10 15 -213 19 -213 4 0 -14 -53 -13
-69 3 -8 6 -11 7 -8 1 7 -11 -100 -36 -155 -37 -16 0 -28 -3 -28 -7 0 -4 -10
-10 -22 -13 -12 -4 -19 -9 -16 -12 3 -4 53 2 110 14 56 11 141 22 188 24 110
7 309 -8 385 -27 32 -9 62 -16 65 -16 8 0 0 63 -9 70 -4 3 -12 26 -19 53 -28
111 -128 214 -247 256 -92 33 -157 35 -246 8z m-872 -1279 c-3 -8 -6 -5 -6 6
-1 11 2 17 5 13 3 -3 4 -12 1 -19z m-270 -170 c-3 -8 -6 -5 -6 6 -1 11 2 17 5
13 3 -3 4 -12 1 -19z m677 6 c3 -8 2 -12 -4 -9 -6 3 -10 10 -10 16 0 14 7 11
14 -7z m570 -53 c9 -14 -6 -22 -21 -10 -18 16 -16 4 3 -15 8 -9 11 -16 5 -16
-13 0 -32 35 -24 44 9 9 31 7 37 -3z m-254 -395 c0 -2 -7 -7 -16 -10 -8 -3
-12 -2 -9 4 6 10 25 14 25 6z"/>
<path d="M630 2910 c8 -5 20 -10 25 -10 6 0 3 5 -5 10 -8 5 -19 10 -25 10 -5
0 -3 -5 5 -10z"/>
<path d="M3910 2899 c0 -5 5 -7 10 -4 6 3 10 8 10 11 0 2 -4 4 -10 4 -5 0 -10
-5 -10 -11z"/>
<path d="M760 2886 c14 -8 27 -12 29 -10 6 6 -1 11 -29 18 l-25 7 25 -15z"/>
<path d="M3968 2893 c-10 -2 -18 -9 -18 -14 0 -5 -8 -9 -17 -10 -10 0 -13 -3
-8 -5 6 -2 28 5 50 16 37 19 34 24 -7 13z"/>
<path d="M3856 2875 c-25 -19 -16 -19 20 0 16 8 22 15 14 15 -8 -1 -24 -7 -34
-15z"/>
<path d="M740 2857 c0 -9 91 -58 101 -55 6 2 -11 15 -38 28 -61 32 -63 33 -63
27z"/>
<path d="M827 2849 c7 -7 15 -10 18 -7 3 3 -2 9 -12 12 -14 6 -15 5 -6 -5z"/>
<path d="M3780 2840 l-25 -8 27 -1 c15 -1 30 4 33 9 7 11 0 11 -35 0z"/>
<path d="M3836 2815 c-25 -19 -9 -19 24 0 14 8 19 14 10 14 -8 0 -24 -6 -34
-14z"/>
<path d="M910 2800 c8 -5 20 -10 25 -10 6 0 3 5 -5 10 -8 5 -19 10 -25 10 -5
0 -3 -5 5 -10z"/>
<path d="M957 2779 c7 -7 15 -10 18 -7 3 3 -2 9 -12 12 -14 6 -15 5 -6 -5z"/>
<path d="M3734 2755 c-10 -8 -14 -15 -8 -15 6 0 17 7 24 15 16 19 9 19 -16 0z"/>
<path d="M3608 2723 c7 -3 16 -2 19 1 4 3 -2 6 -13 5 -11 0 -14 -3 -6 -6z"/>
<path d="M1060 2716 c0 -2 7 -7 16 -10 8 -3 12 -2 9 4 -6 10 -25 14 -25 6z"/>
<path d="M1018 2693 c7 -3 16 -2 19 1 4 3 -2 6 -13 5 -11 0 -14 -3 -6 -6z"/>
<path d="M3625 2690 c-3 -5 -1 -10 4 -10 6 0 11 5 11 10 0 6 -2 10 -4 10 -3 0
-8 -4 -11 -10z"/>
<path d="M1706 2655 c-3 -9 -6 -22 -5 -28 0 -7 5 -1 10 12 5 13 8 26 5 28 -2
2 -6 -3 -10 -12z"/>
<path d="M2891 2614 c0 -11 3 -14 6 -6 3 7 2 16 -1 19 -3 4 -6 -2 -5 -13z"/>
<path d="M3510 2620 c-9 -6 -10 -10 -3 -10 6 0 15 5 18 10 8 12 4 12 -15 0z"/>
<path d="M3426 2575 c-11 -8 -15 -15 -9 -15 6 0 16 7 23 15 16 19 11 19 -14 0z"/>
<path d="M1843 2494 c-3 -8 4 -25 18 -40 18 -20 29 -23 58 -18 20 3 52 5 71 5
23 -1 30 2 22 8 -10 6 -7 10 13 15 14 4 31 4 37 0 6 -4 9 -3 6 2 -4 5 56 9
140 8 173 0 326 -13 297 -25 -19 -7 1 -10 83 -12 12 -1 22 -5 22 -10 0 -5 9
-7 19 -4 11 3 28 -3 38 -12 10 -10 40 -21 65 -24 46 -6 117 -41 101 -49 -4 -3
-3 -3 4 -2 7 2 26 -1 42 -7 21 -7 28 -15 24 -26 -5 -12 -1 -14 15 -8 14 4 22
2 22 -5 0 -7 7 -9 16 -6 14 5 15 4 4 -9 -11 -13 -10 -14 4 -9 9 3 16 2 16 -4
0 -5 8 -9 18 -8 9 0 16 -4 15 -10 -1 -7 10 -14 25 -18 15 -3 34 -10 42 -16 13
-9 13 -11 0 -20 -13 -8 -13 -10 2 -10 29 0 69 -23 64 -36 -3 -8 0 -11 10 -7 7
3 14 0 14 -6 0 -6 7 -11 16 -11 8 0 13 -4 10 -8 -3 -5 10 -21 29 -37 19 -15
35 -34 35 -42 0 -8 5 -11 10 -8 6 3 10 2 10 -4 0 -5 9 -13 20 -16 12 -4 19
-14 18 -23 -2 -10 3 -16 10 -14 8 1 11 -1 8 -6 -2 -4 -1 -14 5 -22 7 -12 9
-11 9 5 1 16 4 14 17 -10 9 -16 22 -34 30 -38 7 -5 11 -12 8 -18 -4 -5 -1 -9
5 -9 6 0 8 -4 5 -10 -3 -5 -1 -10 4 -10 6 0 11 -9 11 -20 0 -11 4 -20 10 -20
5 0 7 -6 4 -14 -3 -7 2 -16 10 -19 9 -4 16 -16 16 -27 0 -11 5 -20 10 -20 6 0
10 -16 10 -35 0 -19 4 -35 9 -35 9 0 19 -60 24 -142 1 -21 5 -38 10 -38 4 0 7
-11 7 -25 0 -14 5 -25 10 -25 17 0 11 102 -10 185 -55 215 -134 336 -341 521
-129 116 -353 251 -448 270 -17 4 -31 10 -31 15 0 5 -3 8 -7 7 -9 -2 -86 18
-123 32 -48 19 -245 40 -363 40 -116 0 -261 -19 -320 -42 -33 -13 -61 5 -54
34 6 22 -1 24 -10 2z"/>
<path d="M2638 2503 c7 -3 16 -2 19 1 4 3 -2 6 -13 5 -11 0 -14 -3 -6 -6z"/>
<path d="M2229 2261 c-3 -8 -33 -13 -82 -14 -42 -1 -77 -6 -77 -11 0 -5 -14
-6 -30 -2 -17 3 -29 2 -26 -3 3 -5 -1 -12 -10 -15 -8 -3 -13 -2 -10 3 4 5 -3
7 -14 4 -11 -3 -17 -10 -13 -16 4 -6 -4 -8 -22 -5 -35 7 -65 -21 -65 -63 0
-17 4 -28 10 -24 6 4 11 -6 11 -22 1 -20 3 -23 6 -9 5 18 6 18 24 -5 10 -13
19 -18 19 -11 0 8 -15 28 -32 44 l-32 30 23 19 c13 10 29 19 36 19 7 0 41 9
76 21 96 31 339 31 459 0 133 -35 230 -70 293 -107 32 -19 61 -34 64 -34 25 0
343 -283 343 -306 0 -4 10 -21 23 -38 58 -79 88 -216 75 -342 -22 -218 -247
-414 -476 -414 -89 0 -208 45 -279 104 l-30 25 -69 -67 c-97 -93 -160 -150
-224 -202 -30 -25 -57 -47 -60 -50 -30 -33 -147 -96 -237 -127 -70 -24 -93
-27 -218 -27 -127 -1 -148 2 -227 27 -49 16 -93 25 -100 21 -6 -4 -8 -3 -5 3
3 5 -14 19 -39 31 -25 12 -51 27 -57 32 -81 68 -130 97 -150 92 l-22 -7 22 -3
c12 -2 33 -17 47 -33 14 -16 30 -29 36 -29 6 0 8 -4 5 -10 -3 -5 0 -7 8 -4 8
3 21 -3 28 -14 8 -10 24 -22 37 -26 12 -4 20 -11 17 -15 -2 -5 8 -6 23 -4 19
3 23 2 13 -5 -10 -8 -6 -11 18 -17 28 -6 30 -9 19 -23 -12 -14 -11 -14 10 -1
17 10 25 11 30 3 4 -7 33 -15 66 -19 32 -4 53 -11 47 -14 -10 -6 39 -13 102
-13 15 0 27 -3 27 -7 0 -10 82 -7 98 2 6 5 16 6 21 3 5 -3 28 1 50 9 23 8 39
10 36 5 -3 -6 -1 -10 4 -10 6 0 11 4 11 9 0 8 62 25 95 26 6 0 13 5 18 12 4 6
17 10 28 8 17 -3 19 -1 9 10 -9 11 -7 12 11 8 14 -4 20 -2 16 4 -7 10 33 33
58 33 8 0 21 9 29 21 8 12 19 19 24 15 11 -7 45 28 35 37 -3 4 4 7 16 7 14 0
20 4 15 12 -5 8 -2 9 11 4 14 -5 16 -4 6 7 -8 11 -5 17 17 27 15 7 31 13 35
11 5 -1 6 3 3 8 -3 5 1 11 8 14 8 3 17 1 20 -6 3 -7 3 -2 0 11 -3 13 -1 22 6
22 6 0 8 4 5 10 -3 6 1 7 10 4 11 -5 18 0 22 15 3 14 11 20 20 17 8 -3 17 3
22 17 9 24 40 54 50 50 3 -2 6 2 6 8 0 11 33 39 47 39 4 0 4 -8 1 -17 -5 -13
-2 -15 11 -10 22 9 43 -2 26 -13 -8 -5 -5 -9 9 -13 12 -3 18 -1 15 4 -3 5 11
0 30 -11 20 -11 39 -19 42 -19 3 0 9 -3 12 -7 4 -4 1 -4 -5 0 -7 4 -13 3 -13
-2 0 -11 119 -25 200 -23 60 1 177 17 145 20 -13 1 -7 7 19 16 22 8 44 11 49
8 6 -3 7 -1 3 5 -4 7 -2 12 5 12 6 0 20 9 30 21 10 11 23 18 29 14 6 -3 9 -1
8 7 -2 7 3 12 10 10 8 -1 11 2 7 8 -3 5 1 10 9 10 10 0 13 6 9 16 -4 12 0 15
18 12 19 -2 25 2 27 20 2 12 8 20 13 17 5 -4 9 2 9 12 0 10 9 29 20 43 11 14
20 31 20 38 0 6 10 22 22 34 20 20 23 35 26 130 3 69 0 114 -8 128 -8 15 -8
20 -1 16 15 -10 14 17 -3 51 -8 15 -20 42 -26 58 -30 72 -46 101 -68 122 -13
12 -21 26 -18 31 3 5 -2 16 -12 23 -15 13 -16 12 -3 -3 7 -10 9 -18 3 -18 -5
0 -19 15 -31 33 -11 17 -21 29 -21 25 0 -11 -46 38 -53 56 -4 9 -13 16 -21 16
-8 0 -18 5 -22 12 -4 7 -3 8 4 4 7 -4 12 -2 12 3 0 6 -9 11 -20 11 -10 0 -24
9 -30 20 -6 11 -14 19 -18 17 -5 -1 -23 12 -40 28 -18 17 -38 30 -45 30 -6 0
-12 6 -12 14 0 8 -6 16 -14 19 -9 3 -11 0 -6 -8 6 -9 3 -9 -14 -1 -11 7 -20
17 -18 24 1 6 -9 13 -23 15 -14 2 -32 10 -40 17 -19 16 -60 30 -79 26 -7 -1
-11 2 -8 6 3 5 -6 10 -21 11 -14 1 -31 7 -36 12 -6 6 -23 10 -39 10 -15 0 -26
4 -22 9 8 13 -30 23 -87 23 -26 0 -48 4 -48 7 0 8 -20 9 -119 10 -30 0 -58 6
-62 12 -5 8 -8 8 -10 0z m308 -47 c-3 -3 -12 -4 -19 -1 -8 3 -5 6 6 6 11 1 17
-2 13 -5z m-367 -1454 c0 -5 -5 -10 -11 -10 -5 0 -7 5 -4 10 3 6 8 10 11 10 2
0 4 -4 4 -10z"/>
<path d="M1935 2230 c-16 -7 -17 -9 -3 -9 9 -1 20 4 23 9 7 11 7 11 -20 0z"/>
<path d="M192 2140 c0 -14 2 -19 5 -12 2 6 2 18 0 25 -3 6 -5 1 -5 -13z"/>
<path d="M2094 2150 c-58 -8 -144 -39 -144 -50 0 -4 7 -11 16 -14 21 -8 26 -8
20 3 -8 13 18 21 46 14 17 -3 19 -2 9 5 -10 8 1 12 42 17 30 4 61 4 67 0 6 -4
18 -1 27 7 13 10 17 10 20 1 3 -7 14 -13 24 -13 11 0 18 4 15 8 -3 5 19 5 49
1 30 -4 69 -5 86 -2 19 3 29 1 25 -5 -3 -6 2 -8 11 -6 10 3 39 -2 65 -10 33
-10 46 -10 42 -3 -4 8 -2 7 7 0 7 -7 21 -13 32 -13 10 0 15 -4 12 -10 -4 -6 5
-10 20 -10 34 0 95 -26 95 -40 0 -7 8 -9 20 -5 12 4 20 2 20 -5 0 -6 4 -9 9
-6 5 3 20 -3 34 -14 14 -11 30 -20 35 -20 6 0 14 -5 18 -12 5 -7 3 -8 -7 -3
-12 8 -12 6 0 -9 9 -10 17 -13 21 -7 3 6 13 3 23 -9 9 -11 24 -20 33 -20 10 0
14 -6 11 -14 -4 -10 -1 -13 7 -10 8 3 20 -3 27 -14 8 -11 18 -19 24 -18 5 0
16 -11 23 -26 7 -16 19 -28 27 -28 7 0 17 -9 20 -20 3 -11 11 -20 16 -20 6 0
7 -5 3 -12 -4 -6 -3 -8 3 -5 15 9 77 -70 92 -116 7 -20 17 -35 22 -32 5 4 9
-2 9 -13 0 -10 3 -22 7 -25 8 -9 13 -49 14 -122 1 -78 -14 -155 -31 -155 -4 0
-11 -15 -14 -34 -4 -19 -17 -42 -31 -52 -14 -10 -25 -24 -25 -31 0 -7 -7 -13
-15 -13 -9 0 -18 -6 -21 -14 -3 -7 -23 -19 -45 -26 -23 -8 -35 -16 -28 -21 14
-8 -40 -27 -101 -34 -25 -3 -58 -8 -73 -11 -32 -7 -157 23 -157 38 0 5 -16 16
-35 24 -36 15 -47 34 -20 34 8 0 15 7 15 15 0 8 12 23 28 33 15 9 28 24 30 31
4 19 34 41 46 34 5 -4 6 -1 2 6 -5 7 1 20 13 30 12 10 21 23 21 30 0 6 4 11 9
11 5 0 13 9 16 20 4 11 11 17 17 14 6 -4 8 -2 4 4 -3 6 0 17 8 24 7 8 21 28
30 46 9 18 21 32 27 32 6 0 7 5 4 10 -3 6 -1 10 5 10 7 0 10 6 7 13 -2 6 4 23
13 37 10 14 19 30 20 35 1 6 6 9 10 8 5 -1 11 20 15 48 4 28 10 48 13 45 8 -9
31 42 35 79 3 23 -1 37 -15 46 -10 7 -18 20 -18 29 0 12 -2 12 -9 2 -4 -8 -11
-13 -15 -13 -22 3 -29 -3 -42 -36 -30 -72 -118 -248 -126 -251 -4 -2 -5 -9 -2
-14 5 -7 2 -8 -6 -3 -14 9 -30 -11 -30 -38 0 -22 -35 -69 -44 -60 -3 3 -6 1
-6 -6 0 -7 -6 -18 -12 -25 -13 -13 -56 -68 -70 -90 -6 -8 -11 -7 -19 4 -8 12
-9 10 -4 -7 5 -18 3 -22 -10 -17 -9 4 -15 3 -13 -2 3 -11 -24 -54 -34 -54 -10
0 -48 -37 -48 -47 0 -15 -83 -81 -96 -76 -8 3 -14 0 -14 -7 0 -6 5 -8 10 -5 6
3 10 2 10 -4 0 -6 -10 -16 -22 -22 -13 -7 -35 -25 -49 -40 -14 -16 -31 -29
-38 -29 -7 0 -10 -3 -8 -7 2 -5 -6 -19 -19 -33 -13 -13 -24 -19 -24 -12 0 17
-17 15 -24 -4 -4 -10 -2 -13 7 -8 15 8 -51 -50 -132 -116 -23 -19 -45 -25 -86
-22 -13 1 -16 -1 -8 -6 17 -11 2 -28 -25 -29 -13 -1 -41 -11 -61 -21 -73 -39
-213 -50 -390 -32 -2 0 3 8 10 18 13 16 13 16 -5 2 -15 -11 -20 -12 -23 -2 -3
6 -13 12 -23 12 -10 0 -22 5 -25 10 -4 6 -10 8 -15 5 -5 -3 -20 -1 -35 5 -23
9 -25 13 -15 25 11 13 10 14 -3 10 -8 -4 -18 -2 -22 4 -3 6 -17 11 -29 11 -13
0 -29 7 -36 15 -7 8 -19 15 -26 15 -13 0 -18 12 -15 32 0 4 -6 5 -15 1 -8 -3
-14 -2 -13 3 5 29 -2 37 -15 18 -13 -17 -11 -21 17 -46 18 -15 36 -27 40 -28
4 0 20 -11 35 -25 14 -13 56 -36 92 -51 36 -14 74 -30 85 -35 40 -19 132 -32
220 -33 130 -1 243 29 355 95 131 77 575 497 665 629 14 19 37 53 53 75 49 70
138 251 149 305 6 33 41 47 62 25 13 -12 12 -20 -3 -57 -38 -89 -138 -286
-155 -305 -10 -11 -25 -31 -32 -45 -23 -42 -70 -99 -151 -182 -43 -44 -78 -82
-78 -86 0 -10 107 -71 152 -87 30 -10 71 -14 133 -11 98 4 170 30 230 82 17
14 33 26 37 26 4 0 26 28 49 62 104 153 106 336 6 488 -41 62 -200 216 -277
269 -122 83 -220 132 -300 151 -30 7 -59 16 -65 20 -32 24 -296 37 -411 20z"/>
<path d="M155 2010 c-4 -6 -16 -8 -28 -5 -18 5 -19 4 -7 -4 13 -10 13 -12 0
-21 -8 -5 -10 -10 -4 -10 6 0 21 11 34 25 13 14 21 25 17 25 -3 0 -9 -5 -12
-10z"/>
<path d="M1891 2004 c0 -11 3 -14 6 -6 3 7 2 16 -1 19 -3 4 -6 -2 -5 -13z"/>
<path d="M1031 1993 c-7 -8 -11 -16 -8 -19 2 -2 10 2 17 11 17 20 9 27 -9 8z"/>
<path d="M193 1973 c9 -2 25 -2 35 0 9 3 1 5 -18 5 -19 0 -27 -2 -17 -5z"/>
<path d="M3938 1973 c7 -3 16 -2 19 1 4 3 -2 6 -13 5 -11 0 -14 -3 -6 -6z"/>
<path d="M4043 1973 c9 -2 23 -2 30 0 6 3 -1 5 -18 5 -16 0 -22 -2 -12 -5z"/>
<path d="M76 1941 c-4 -5 3 -7 14 -4 23 6 26 13 6 13 -8 0 -17 -4 -20 -9z"/>
<path d="M126 1942 c-5 -9 422 -8 431 2 4 3 -91 6 -210 6 -119 -1 -219 -4
-221 -8z"/>
<path d="M4018 1943 c12 -2 30 -2 40 0 9 3 -1 5 -23 4 -22 0 -30 -2 -17 -4z"/>
<path d="M4128 1943 c6 -2 18 -2 25 0 6 3 1 5 -13 5 -14 0 -19 -2 -12 -5z"/>
<path d="M38 1923 c7 -3 16 -2 19 1 4 3 -2 6 -13 5 -11 0 -14 -3 -6 -6z"/>
<path d="M3090 1900 c0 -5 5 -10 10 -10 6 0 10 5 10 10 0 6 -4 10 -10 10 -5 0
-10 -4 -10 -10z"/>
<path d="M2536 1604 c-4 -10 -1 -14 6 -12 15 5 23 28 10 28 -5 0 -13 -7 -16
-16z"/>
<path d="M3641 1594 c0 -11 3 -14 6 -6 3 7 2 16 -1 19 -3 4 -6 -2 -5 -13z"/>
<path d="M1932 1576 c6 -14 15 -26 20 -26 10 0 -7 36 -22 45 -6 4 -5 -5 2 -19z"/>
<path d="M3512 1420 c-6 -10 -8 -21 -3 -24 5 -3 11 4 14 16 8 29 4 32 -11 8z"/>
<path d="M3490 1379 c0 -5 -4 -8 -9 -5 -4 3 -7 -7 -5 -22 7 -65 16 -92 29 -92
19 0 19 -24 0 -40 -8 -7 -15 -23 -15 -36 0 -14 -6 -24 -14 -24 -10 0 -14 -9
-13 -27 1 -17 -3 -27 -10 -26 -8 2 -10 -4 -6 -15 3 -9 3 -14 -2 -10 -7 7 -35
-14 -35 -27 0 -3 -7 -22 -15 -43 -13 -30 -18 -34 -26 -22 -9 13 -10 13 -6 -1
3 -10 -12 -32 -41 -60 -26 -24 -47 -46 -47 -49 0 -3 -6 -4 -12 -2 -7 2 -13 -5
-13 -14 0 -10 -5 -14 -16 -10 -8 3 -12 2 -9 -4 3 -6 1 -10 -5 -10 -6 0 -22
-11 -36 -25 -14 -14 -34 -25 -45 -25 -11 0 -22 -6 -25 -14 -3 -8 -23 -17 -45
-21 -21 -4 -41 -11 -45 -16 -3 -5 -16 -7 -29 -5 -15 3 -24 0 -22 -6 4 -19
-180 -29 -268 -15 -45 7 -63 11 -85 20 -8 4 -26 8 -40 11 -43 7 -70 18 -65 26
5 9 -18 21 -50 27 -11 2 -32 12 -47 23 -15 11 -34 20 -43 20 -8 0 -15 8 -15
18 -1 16 -1 16 -11 0 -5 -10 -15 -18 -21 -18 -15 0 -37 -31 -38 -52 0 -21 59
-70 121 -99 26 -13 45 -27 42 -32 -3 -5 4 -6 15 -3 13 4 22 1 25 -9 4 -8 13
-12 20 -9 8 3 22 -2 31 -11 11 -11 16 -13 16 -4 0 10 3 10 12 1 7 -7 30 -12
53 -13 32 0 36 -2 20 -9 -14 -6 -6 -7 22 -3 26 3 48 1 56 -6 10 -7 46 -9 113
-5 54 4 111 6 126 6 14 -1 29 5 32 13 3 9 18 15 35 15 16 0 33 5 37 11 3 6 17
9 30 6 13 -2 21 0 18 4 -3 5 2 9 10 9 9 0 16 3 16 8 0 4 34 23 75 42 43 20 79
44 86 57 7 13 17 23 23 23 6 0 31 20 55 45 24 24 48 42 54 38 6 -3 7 -1 3 5
-6 10 7 31 42 67 6 8 12 18 12 24 0 6 9 15 21 21 11 7 18 14 15 17 -3 3 3 17
14 31 11 13 25 42 30 64 7 23 15 36 22 32 7 -4 8 1 3 16 -5 16 -4 20 4 15 8
-5 10 1 5 19 -3 15 -1 32 5 40 7 8 8 17 3 20 -5 3 -19 -21 -31 -52 -78 -200
-184 -334 -348 -440 -78 -50 -114 -67 -208 -98 -70 -23 -98 -26 -220 -27 -135
-2 -143 0 -235 32 -145 52 -250 116 -250 153 0 28 28 33 59 10 51 -37 203
-104 275 -120 86 -19 211 -20 286 -3 77 17 170 51 202 73 14 10 29 18 32 18
11 0 115 79 149 113 66 66 118 137 162 222 50 98 55 132 24 159 -18 15 -21 26
-17 67 3 27 3 49 2 49 -2 0 -4 -5 -4 -11z m-215 -639 c-3 -5 -12 -10 -18 -10
-7 0 -6 4 3 10 19 12 23 12 15 0z"/>
<path d="M3695 1330 c-3 -5 -1 -10 4 -10 6 0 11 5 11 10 0 6 -2 10 -4 10 -3 0
-8 -4 -11 -10z"/>
<path d="M3681 1296 c0 -10 -9 -25 -18 -32 -10 -7 -13 -14 -7 -14 18 0 36 27
31 47 -4 17 -5 17 -6 -1z"/>
<path d="M2210 1239 c0 -5 5 -7 10 -4 6 3 10 8 10 11 0 2 -4 4 -10 4 -5 0 -10
-5 -10 -11z"/>
<path d="M3630 1229 c0 -5 5 -7 10 -4 6 3 10 8 10 11 0 2 -4 4 -10 4 -5 0 -10
-5 -10 -11z"/>
<path d="M1563 1113 c9 -2 23 -2 30 0 6 3 -1 5 -18 5 -16 0 -22 -2 -12 -5z"/>
<path d="M730 1099 c0 -5 5 -7 10 -4 6 3 10 8 10 11 0 2 -4 4 -10 4 -5 0 -10
-5 -10 -11z"/>
<path d="M3755 1090 c3 -4 16 -10 30 -12 13 -3 22 -2 20 2 -3 4 -16 10 -30 12
-13 3 -22 2 -20 -2z"/>
<path d="M675 1080 c-8 -13 5 -13 25 0 13 8 13 10 -2 10 -9 0 -20 -4 -23 -10z"/>
<path d="M730 1060 c-13 -8 -13 -10 2 -10 9 0 20 5 23 10 8 13 -5 13 -25 0z"/>
<path d="M3740 1056 c0 -2 7 -7 16 -10 8 -3 12 -2 9 4 -6 10 -25 14 -25 6z"/>
<path d="M3825 1050 c3 -5 10 -10 16 -10 5 0 9 5 9 10 0 6 -7 10 -16 10 -8 0
-12 -4 -9 -10z"/>
<path d="M592 1024 c-7 -8 -8 -14 -3 -14 10 0 25 19 20 25 -2 1 -10 -3 -17
-11z"/>
<path d="M3790 1030 c8 -5 20 -10 25 -10 6 0 3 5 -5 10 -8 5 -19 10 -25 10 -5
0 -3 -5 5 -10z"/>
<path d="M1110 1020 c19 -13 30 -13 30 0 0 6 -10 10 -22 10 -19 0 -20 -2 -8
-10z"/>
<path d="M670 1010 c8 -5 20 -10 25 -10 6 0 3 5 -5 10 -8 5 -19 10 -25 10 -5
0 -3 -5 5 -10z"/>
<path d="M3833 1004 c0 -8 3 -12 5 -9 3 3 11 0 19 -7 7 -6 15 -9 17 -7 2 2 -6
12 -18 21 -18 13 -23 14 -23 2z"/>
<path d="M3891 1017 c2 -1 13 -9 24 -17 19 -14 19 -14 6 3 -7 9 -18 17 -24 17
-6 0 -8 -1 -6 -3z"/>
<path d="M640 1004 c0 -6 -12 -15 -27 -22 -26 -10 -26 -11 -3 -5 30 6 46 20
37 30 -4 3 -7 2 -7 -3z"/>
<path d="M1179 963 c12 -24 24 -43 27 -43 11 0 -9 44 -28 64 -19 20 -19 19 1
-21z"/>
<path d="M505 969 c-11 -16 -1 -19 13 -3 7 8 8 14 3 14 -5 0 -13 -5 -16 -11z"/>
<path d="M3910 963 c0 -13 48 -38 57 -30 3 4 0 7 -7 7 -7 0 -22 7 -32 17 -10
9 -18 12 -18 6z"/>
<path d="M4003 950 c14 -11 31 -20 39 -20 7 0 -2 9 -20 20 -42 26 -52 26 -19
0z"/>
<path d="M315 909 c-4 -6 -5 -12 -2 -15 2 -3 7 2 10 11 7 17 1 20 -8 4z"/>
<path d="M400 906 c7 -7 14 -6 21 1 9 9 7 12 -9 10 -14 -1 -18 -5 -12 -11z"/>
<path d="M427 866 c-4 -10 -7 -25 -6 -34 0 -11 4 -9 10 7 5 13 8 29 6 35 -2 5
-6 2 -10 -8z"/>
<path d="M286 840 c7 -28 12 -35 18 -29 2 2 -2 15 -10 29 l-15 25 7 -25z"/>
<path d="M1275 840 c3 -5 8 -10 11 -10 2 0 4 5 4 10 0 6 -5 10 -11 10 -5 0 -7
-4 -4 -10z"/>
<path d="M1040 819 c0 -5 5 -7 10 -4 6 3 10 8 10 11 0 2 -4 4 -10 4 -5 0 -10
-5 -10 -11z"/>
<path d="M2060 680 c-9 -6 -10 -10 -3 -10 6 0 15 5 18 10 8 12 4 12 -15 0z"/>
<path d="M2698 583 c7 -3 16 -2 19 1 4 3 -2 6 -13 5 -11 0 -14 -3 -6 -6z"/>
<path d="M1451 475 c0 -12 -5 -26 -11 -33 -5 -7 -3 -6 6 2 9 7 14 22 11 32 -4
17 -5 17 -6 -1z"/>
<path d="M3111 465 c0 -15 58 -122 59 -109 0 6 -13 35 -30 65 -16 30 -30 50
-29 44z"/>
<path d="M3160 453 c0 -4 5 -15 10 -23 8 -13 10 -13 10 2 0 9 -4 20 -10 23 -5
3 -10 3 -10 -2z"/>
<path d="M2278 297 c4 -205 8 -228 10 -52 1 88 -2 165 -6 172 -4 6 -6 -48 -4
-120z"/>
<path d="M2321 414 c0 -11 3 -14 6 -6 3 7 2 16 -1 19 -3 4 -6 -2 -5 -13z"/>
<path d="M3202 380 c0 -14 2 -19 5 -12 2 6 2 18 0 25 -3 6 -5 1 -5 -13z"/>
<path d="M2324 300 c0 -52 1 -74 3 -47 2 26 2 68 0 95 -2 26 -3 4 -3 -48z"/>
<path d="M1396 363 c-6 -14 -5 -15 5 -6 7 7 10 15 7 18 -3 3 -9 -2 -12 -12z"/>
<path d="M1415 323 c-10 -21 -19 -40 -21 -43 -1 -3 2 -12 7 -20 9 -13 9 -13 7
0 -1 8 6 32 16 53 10 21 16 40 14 43 -3 2 -13 -12 -23 -33z"/>
<path d="M3231 333 c-1 -12 4 -25 9 -28 12 -7 12 2 0 30 -8 19 -9 19 -9 -2z"/>
<path d="M3176 332 c6 -4 16 -20 22 -37 6 -19 11 -23 11 -12 1 25 -17 57 -32
57 -8 0 -9 -3 -1 -8z"/>
<path d="M1350 279 c0 -5 5 -7 10 -4 6 3 10 8 10 11 0 2 -4 4 -10 4 -5 0 -10
-5 -10 -11z"/>
<path d="M3260 283 c0 -23 13 -43 29 -43 10 0 12 3 5 8 -6 4 -16 16 -22 27 -6
11 -12 15 -12 8z"/>
<path d="M3230 230 c0 -11 4 -20 9 -20 5 0 7 9 4 20 -3 11 -7 20 -9 20 -2 0
-4 -9 -4 -20z"/>
<path d="M1307 210 c-9 -11 -13 -20 -8 -20 11 0 35 29 29 35 -2 2 -12 -4 -21
-15z"/>
<path d="M1360 220 c0 -5 5 -10 10 -10 6 0 10 5 10 10 0 6 -4 10 -10 10 -5 0
-10 -4 -10 -10z"/>
<path d="M3350 190 c0 -16 4 -30 8 -30 5 0 7 14 4 30 -2 17 -6 30 -8 30 -2 0
-4 -13 -4 -30z"/>
<path d="M1343 169 c9 -5 17 -18 18 -27 0 -11 2 -12 6 -4 6 15 -14 42 -31 42
-6 0 -3 -5 7 -11z"/>
<path d="M2322 125 c0 -16 2 -22 5 -12 2 9 2 23 0 30 -3 6 -5 -1 -5 -18z"/>
<path d="M3280 99 c0 -5 5 -7 10 -4 6 3 10 8 10 11 0 2 -4 4 -10 4 -5 0 -10
-5 -10 -11z"/>
</g>
</svg>
