<svg width="1200" height="760" viewBox="0 0 1200 760" fill="none" xmlns="http://www.w3.org/2000/svg">
  <defs>
    <linearGradient id="bg" x1="120" y1="80" x2="1100" y2="700" gradientUnits="userSpaceOnUse">
      <stop stop-color="#0A2440"/>
      <stop offset="1" stop-color="#1C3A2A"/>
    </linearGradient>
    <linearGradient id="node" x1="0" y1="0" x2="1" y2="1">
      <stop stop-color="#6BDEFF"/>
      <stop offset="1" stop-color="#40F2B6"/>
    </linearGradient>
  </defs>

  <rect width="1200" height="760" rx="36" fill="#08131F"/>
  <rect x="70" y="70" width="1060" height="620" rx="28" fill="url(#bg)" stroke="#2E5F78"/>

  <rect x="130" y="180" width="230" height="120" rx="22" fill="#10324A" stroke="#3D7A95"/>
  <rect x="130" y="460" width="230" height="120" rx="22" fill="#10324A" stroke="#3D7A95"/>
  <rect x="484" y="140" width="250" height="140" rx="22" fill="#13485C" stroke="#3B8A8D"/>
  <rect x="484" y="420" width="250" height="140" rx="22" fill="#13485C" stroke="#3B8A8D"/>
  <rect x="860" y="300" width="220" height="160" rx="22" fill="#1C4A52" stroke="#4A9A88"/>

  <path d="M360 240H462" stroke="#78DFFF" stroke-width="8" stroke-linecap="round"/>
  <path d="M360 520H462" stroke="#78DFFF" stroke-width="8" stroke-linecap="round"/>
  <path d="M734 210H822C844 210 860 226 860 248V338" stroke="#52E8B7" stroke-width="8" stroke-linecap="round"/>
  <path d="M734 490H822C844 490 860 474 860 452V392" stroke="#52E8B7" stroke-width="8" stroke-linecap="round"/>

  <circle cx="420" cy="240" r="16" fill="url(#node)"/>
  <circle cx="420" cy="520" r="16" fill="url(#node)"/>
  <circle cx="822" cy="210" r="16" fill="url(#node)"/>
  <circle cx="822" cy="490" r="16" fill="url(#node)"/>

  <rect x="160" y="212" width="170" height="16" rx="8" fill="#9CD1E4" fill-opacity="0.58"/>
  <rect x="160" y="240" width="130" height="12" rx="6" fill="#9CD1E4" fill-opacity="0.42"/>
  <rect x="160" y="492" width="170" height="16" rx="8" fill="#9CD1E4" fill-opacity="0.58"/>
  <rect x="160" y="520" width="130" height="12" rx="6" fill="#9CD1E4" fill-opacity="0.42"/>

  <rect x="520" y="184" width="170" height="16" rx="8" fill="#A7E8D8" fill-opacity="0.58"/>
  <rect x="520" y="214" width="140" height="12" rx="6" fill="#A7E8D8" fill-opacity="0.42"/>
  <rect x="520" y="464" width="170" height="16" rx="8" fill="#A7E8D8" fill-opacity="0.58"/>
  <rect x="520" y="494" width="140" height="12" rx="6" fill="#A7E8D8" fill-opacity="0.42"/>

  <rect x="896" y="340" width="152" height="16" rx="8" fill="#A5E7D7" fill-opacity="0.62"/>
  <rect x="896" y="370" width="120" height="12" rx="6" fill="#A5E7D7" fill-opacity="0.44"/>
</svg>
