<svg width="1200" height="700" viewBox="0 0 1200 700" fill="none" xmlns="http://www.w3.org/2000/svg">
  <defs>
    <linearGradient id="bg" x1="0" y1="0" x2="1200" y2="700" gradientUnits="userSpaceOnUse">
      <stop stop-color="#061B2B"/>
      <stop offset="1" stop-color="#0B2E25"/>
    </linearGradient>
    <linearGradient id="panel" x1="0" y1="0" x2="500" y2="260" gradientUnits="userSpaceOnUse">
      <stop stop-color="#0E3A5A"/>
      <stop offset="1" stop-color="#105E54"/>
    </linearGradient>
    <linearGradient id="highlight" x1="0" y1="0" x2="1" y2="1">
      <stop stop-color="#66E8FF" stop-opacity="0.9"/>
      <stop offset="1" stop-color="#3CF6B1" stop-opacity="0.4"/>
    </linearGradient>
    <filter id="soft" x="-20%" y="-20%" width="140%" height="140%">
      <feGaussianBlur stdDeviation="14"/>
    </filter>
  </defs>

  <rect width="1200" height="700" rx="36" fill="url(#bg)"/>
  <circle cx="240" cy="120" r="160" fill="#2FE4B8" fill-opacity="0.2" filter="url(#soft)"/>
  <circle cx="1020" cy="560" r="180" fill="#40C9FF" fill-opacity="0.18" filter="url(#soft)"/>

  <rect x="70" y="70" width="1060" height="560" rx="28" fill="#071623" fill-opacity="0.8" stroke="#2A4959"/>
  <rect x="100" y="108" width="260" height="44" rx="12" fill="#0D2438"/>
  <rect x="380" y="108" width="180" height="44" rx="12" fill="#0D2438"/>
  <rect x="580" y="108" width="180" height="44" rx="12" fill="#0D2438"/>

  <rect x="100" y="188" width="520" height="230" rx="20" fill="url(#panel)" stroke="#2C748A"/>
  <rect x="130" y="228" width="170" height="14" rx="7" fill="#8EEBFF" fill-opacity="0.55"/>
  <rect x="130" y="258" width="420" height="12" rx="6" fill="#90B9CE" fill-opacity="0.5"/>
  <rect x="130" y="286" width="370" height="12" rx="6" fill="#90B9CE" fill-opacity="0.4"/>

  <rect x="640" y="188" width="460" height="132" rx="20" fill="#0C2E42" stroke="#2A6678"/>
  <rect x="670" y="220" width="110" height="64" rx="14" fill="#1E4D67"/>
  <rect x="790" y="220" width="110" height="64" rx="14" fill="#1D6A63"/>
  <rect x="910" y="220" width="160" height="64" rx="14" fill="#2B4F71"/>

  <rect x="640" y="338" width="460" height="230" rx="20" fill="#092B3C" stroke="#2E5E73"/>
  <path d="M688 516L758 456L824 482L914 394L980 426L1058 372" stroke="url(#highlight)" stroke-width="10" stroke-linecap="round" stroke-linejoin="round"/>
  <circle cx="758" cy="456" r="9" fill="#5CE3FF"/>
  <circle cx="824" cy="482" r="9" fill="#5CE3FF"/>
  <circle cx="914" cy="394" r="9" fill="#5CE3FF"/>
  <circle cx="980" cy="426" r="9" fill="#5CE3FF"/>

  <rect x="100" y="438" width="520" height="130" rx="20" fill="#0D2B3A" stroke="#2F596A"/>
  <rect x="132" y="470" width="150" height="70" rx="14" fill="#1A4E5F"/>
  <rect x="296" y="470" width="150" height="70" rx="14" fill="#236E67"/>
  <rect x="460" y="470" width="130" height="70" rx="14" fill="#264D7A"/>
</svg>
