<?xml version="1.0" standalone="no"?>
<!DOCTYPE svg PUBLIC "-//W3C//DTD SVG 20010904//EN"
 "http://www.w3.org/TR/2001/REC-SVG-20010904/DTD/svg10.dtd">
<svg version="1.0" xmlns="http://www.w3.org/2000/svg"
 width="1254.000000pt" height="1254.000000pt" viewBox="0 0 1254.000000 1254.000000"
 preserveAspectRatio="xMidYMid meet">

<defs>
<linearGradient id="logoPalette" x1="0" y1="0" x2="1" y2="1">
<stop offset="0%" stop-color="#79E2FF"/>
<stop offset="100%" stop-color="#48EDB8"/>
</linearGradient>
</defs>

<g transform="translate(0.000000,1254.000000) scale(0.100000,-0.100000)"
fill="url(#logoPalette)" stroke="none">
<path d="M5770 11249 c64 -14 139 -63 178 -115 18 -24 40 -44 50 -44 13 0 14 -2
3 -9 -7 -5 88 -11 230 -14 254 -5 359 -17 569 -63 626 -139 1192 -528 1546
-1064 203 -307 336 -633 418 -1026 50 -236 86 -541 95 -798 l6 -179 140 -89
c500 -319 939 -707 1215 -1073 375 -498 575 -1064 597 -1683 3 -101 9 -178 14
-171 13 22 129 -73 171 -141 12 -19 26 -38 31 -41 12 -9 28 -148 22 -184 -13
-66 -52 -154 -79 -178 -11 -10 -43 -29 -70 -43 -27 -14 -54 -31 -60 -39 -15
-20 -119 -56 -127 -44 -3 5 -15 -21 -28 -58 -89 -262 -241 -554 -402 -769
-413 -552 -1027 -918 -1722 -1026 -116 -18 -185 -22 -377 -22 -139 0 -272 5
-325 12 -238 34 -485 98 -699 182 -194 76 -542 264 -596 323 -38 40 -12 125
38 128 38 3 57 -5 160 -68 258 -157 536 -277 797 -343 248 -64 345 -75 630
-74 215 0 268 3 380 23 267 47 449 105 680 215 588 282 1041 787 1258 1401 50
142 51 148 36 143 -16 -5 -65 59 -98 127 -14 28 -29 53 -35 57 -12 8 -14 130
-3 196 4 24 14 50 22 58 8 9 15 19 15 23 0 11 107 118 157 158 28 22 43 29 46
20 12 -29 6 240 -8 353 -84 679 -369 1233 -901 1750 -445 432 -968 778 -1549
1024 -634 267 -1311 399 -1970 383 -352 -9 -593 -41 -910 -124 -99 -25 -193
-46 -209 -46 -58 1 -90 89 -47 132 42 42 446 138 745 176 481 61 1083 26 1604
-94 106 -24 122 -26 122 -12 0 47 -35 221 -66 331 -122 434 -434 773 -844 918
-159 56 -235 67 -455 67 -156 0 -219 -5 -285 -19 -485 -105 -848 -405 -1033
-856 -156 -379 -164 -935 -21 -1590 146 -670 381 -1239 709 -1715 106 -153
204 -275 350 -432 95 -101 115 -128 115 -153 0 -45 -39 -80 -89 -80 -38 0 -45
5 -153 123 -507 552 -835 1188 -1048 2037 -192 764 -197 1412 -15 1871 191
481 614 837 1126 948 715 154 1402 -175 1708 -819 91 -191 148 -409 173 -663
3 -27 10 -30 173 -86 266 -91 617 -239 772 -325 l43 -25 0 97 c0 123 -15 295
-41 487 -91 668 -315 1163 -714 1573 -405 418 -915 658 -1515 712 -142 13
-339 10 -343 -5 -1 -5 -22 -23 -47 -40 -25 -16 -46 -39 -49 -50 -2 -11 -7 -22
-11 -25 -4 -3 -16 -23 -26 -45 -15 -31 -33 -47 -79 -72 -92 -50 -106 -55 -162
-61 -77 -7 -219 47 -285 108 -27 25 -53 46 -58 46 -6 1 -18 2 -27 3 -16 1 -16
3 -3 12 32 22 -58 -4 -180 -53 -318 -126 -628 -337 -846 -574 -374 -407 -596
-909 -670 -1515 -23 -188 -23 -638 0 -849 53 -481 152 -912 330 -1435 240
-706 567 -1294 1005 -1808 81 -95 101 -125 101 -150 0 -59 -66 -96 -120 -67
-33 18 -255 283 -372 445 -276 383 -560 934 -734 1422 -30 87 -59 163 -63 170
-14 25 -305 -241 -450 -412 -246 -289 -361 -582 -361 -922 0 -349 151 -705
405 -958 204 -203 423 -323 695 -382 119 -25 400 -25 520 0 325 70 676 273
1146 663 309 257 618 565 863 859 452 542 705 995 851 1520 33 121 51 145 105
145 49 0 80 -30 79 -77 -3 -96 -133 -459 -254 -710 -235 -487 -595 -962 -1121
-1479 -271 -267 -446 -417 -708 -609 -205 -150 -331 -229 -501 -313 -253 -127
-409 -169 -660 -179 -230 -9 -402 19 -605 98 -616 238 -1021 876 -974 1533 23
321 154 631 384 906 81 96 313 323 433 424 50 42 92 82 92 87 0 5 -20 83 -45
172 -74 270 -120 483 -160 736 -14 85 -27 156 -29 159 -12 11 -511 -434 -737
-658 -198 -197 -315 -326 -419 -466 -246 -328 -400 -696 -462 -1098 -28 -189
-31 -533 -5 -711 43 -295 153 -611 302 -870 80 -141 84 -144 186 -155 133 -14
187 -29 225 -62 18 -16 32 -35 31 -41 -1 -6 3 -11 8 -12 33 -2 81 -73 72 -106
-3 -10 -1 -21 3 -24 5 -3 9 -13 9 -23 1 -52 4 -71 12 -66 12 7 11 -10 -6 -91
l-15 -70 38 -33 c355 -313 781 -513 1257 -588 138 -22 454 -29 601 -15 417 43
838 201 1234 464 157 105 442 328 585 457 22 20 87 79 145 131 58 51 208 195
334 319 621 612 1030 1152 1325 1750 87 176 209 462 226 533 17 65 106 90 144
41 30 -38 27 -60 -25 -192 -266 -676 -614 -1228 -1158 -1837 -64 -71 -116
-133 -116 -137 0 -12 132 -119 210 -171 246 -161 528 -234 807 -207 574 54
1025 449 1169 1024 36 140 44 401 19 561 -41 267 -159 526 -342 755 -295 369
-764 735 -1263 985 -488 245 -947 360 -1481 372 -395 9 -656 -27 -1025 -142
-133 -42 -157 -43 -189 -10 -42 42 -25 106 34 131 75 32 335 104 458 128 246
47 381 60 643 60 450 -1 790 -59 1225 -211 334 -117 757 -350 1089 -602 221
-166 476 -407 621 -586 241 -297 377 -630 403 -986 52 -723 -356 -1352 -1020
-1574 -157 -52 -268 -69 -458 -69 -115 0 -191 5 -251 17 -243 48 -485 166
-690 335 l-86 71 -109 -111 c-360 -362 -783 -725 -1109 -949 -491 -337 -1050
-519 -1599 -519 -590 0 -1205 225 -1663 609 -65 54 -100 68 -153 62 -8 -1 -54
-4 -102 -7 -79 -5 -94 -3 -144 20 -38 18 -53 30 -48 38 4 7 3 10 -1 5 -5 -4
-17 0 -27 10 -10 9 -18 12 -18 8 0 -19 -58 73 -75 120 -24 64 -25 187 -3 275
9 36 17 61 17 56 1 -5 4 -7 7 -3 3 3 -21 50 -54 104 -204 337 -334 717 -372
1092 -13 133 -13 425 1 549 60 554 272 1040 633 1457 219 252 627 641 1024
975 l112 95 -6 45 c-12 76 -9 568 5 695 48 468 163 843 366 1200 314 552 778
934 1409 1161 44 15 74 30 68 32 -8 2 -3 15 12 35 13 18 34 52 46 76 41 82
126 159 200 182 37 11 148 10 200 -2z"/>
</g>
</svg>
